<svg xmlns="http://www.w3.org/2000/svg" version="1.1" xmlns:xlink="http://www.w3.org/1999/xlink" xmlns:svgjs="http://svgjs.dev/svgjs" width="1000" height="1000" viewBox="0 0 1000 1000"><rect width="1000" height="1000" fill="#000000"></rect><g transform="matrix(0.7,0,0,0.7,149.57605563665675,325.0220745094812)"><svg viewBox="0 0 396 198" data-background-color="#ffdc00" preserveAspectRatio="xMidYMid meet" height="499" width="1000" xmlns="http://www.w3.org/2000/svg" xmlns:xlink="http://www.w3.org/1999/xlink"><g id="tight-bounds" transform="matrix(1,0,0,1,0.24008861730862918,0.18588390244127595)"><svg viewBox="0 0 395.52 197.62823219511745" height="197.62823219511745" width="395.52"><g><svg viewBox="0 0 395.52 197.62823219511745" height="197.62823219511745" width="395.52"><g transform="matrix(1,0,0,1,0,98.1310510083108)"><svg viewBox="0 0 395.52 99.49718118680664" height="99.49718118680664" width="395.52"><g id="textblocktransform"><svg viewBox="0 0 395.52 99.49718118680664" height="99.49718118680664" width="395.52" id="textblock"><g><svg viewBox="0 0 395.52 79.50534866195868" height="79.50534866195868" width="395.52"><path d="M394.594 17.052C392.735 8.8 387.435 6.506 387.435 6.506 371.165-1.995 350.86-0.163 332.619 1.059 300.414 1.108 268.339 2.924 236.208 3.898 168.767 4.046 100.749 1.603 33.643 7.628 27.339 9.476-6.54 7.991 1.121 18.109 3.129 22.318 10.456 26.989 10.232 30.851 11.236 31.527 12.631 29.976 13.226 30.95 15.309 33.574 18.711 32.336 21.501 33.888 17.614 38.031 20.403 41.48 23.062 45.095 18.377 46.036 12.371 45.59 9.675 48.709 9.396 50.971 7.89 50.542 6.235 50.443 5.026 50.376 2.59 50.624 2.999 51.334 4.394 53.76-1.594 55.163 2.162 57.54-0.422 60.115 3.948 62.343 3.353 65.132 3.278 65.693 3.687 66.172 4.338 66.304 7.22 67.014 3.018 68.4 3.464 69.902 33.029 80.168 65.104 73.071 95.394 77.792 103.259 74.491 97.346 78.964 100.489 78.27 102.943 77.462 104.728 80.812 107.499 78.914 107.927 78.369 107.276 77.082 108.8 77.33 109.6 77.462 110.307 77.429 110.418 76.669 110.586 75.53 109.117 76.24 108.726 75.646 112.947 72.642 111.906 79.789 115.866 79.492 115.68 78.617 114.528 77.363 116.889 77.528 119.232 76.273 119.306 75.233 121.389 78.056 121.463 78.666 121.835 79.096 122.43 79.393 128.938 76.323 135.409 80.482 142.233 79.096 146.417 77.577 150.433 79.921 154.672 79.343 156.16 78.881 157.666 78.056 159.098 79.442 176.632 79.739 195.319 78.501 211.943 79.492 256.364 77.643 303.835 80.251 350.674 77.808 361.719 76.867 373.192 75.53 383.958 74.458 383.958 74.458 392.679 71.52 392.679 58.316S394.538 46.762 394.817 36.248C395.096 25.734 396.398 25.305 394.538 17.052Z" opacity="1" fill="#ffffff" data-fill-palette-color="tertiary"></path><g transform="matrix(1,0,0,1,55.76832,26.068561146666667)"><svg width="283.98335999999995" viewBox="1.7000000476837158 -35.5 373.5199890136719 36.001922607421875" height="27.368226368625344" data-palette-color="#ffffff"><path d="M15.1 0L15.1 0Q14.4 0 13.98-0.45 13.55-0.9 13.55-1.5L13.55-1.5 13.55-33.35 16.65-33.35 16.65-1.5Q16.65-0.9 16.2-0.45 15.75 0 15.1 0ZM27-32.15L3.2-32.15Q2.6-32.15 2.15-32.55 1.7-32.95 1.7-33.6L1.7-33.6Q1.7-34.2 2.15-34.6 2.6-35 3.2-35L3.2-35 27-35Q27.6-35 28.05-34.6 28.5-34.2 28.5-33.55L28.5-33.55Q28.5-32.9 28.05-32.52 27.6-32.15 27-32.15L27-32.15ZM36.6 0L36.6 0Q35.85 0 35.37-0.45 34.9-0.9 34.9-1.5L34.9-1.5 34.9-33.5Q34.9-34.1 35.35-34.55 35.8-35 36.4-35L36.4-35 49.9-35Q52.75-35 55-33.77 57.25-32.55 58.52-30.4 59.8-28.25 59.8-25.55L59.8-25.55Q59.8-23.35 59-21.5 58.2-19.65 56.75-18.38 55.3-17.1 53.5-16.5L53.5-16.5 51.75-17.05Q53.6-16.9 55.2-15.88 56.8-14.85 57.77-13.08 58.75-11.3 58.8-8.8L58.8-8.8Q58.85-6.65 59.02-5.45 59.2-4.25 59.55-3.65 59.9-3.05 60.45-2.7L60.45-2.7Q60.95-2.4 61.12-1.85 61.3-1.3 61-0.8L61-0.8Q60.8-0.4 60.42-0.23 60.05-0.05 59.65-0.05 59.25-0.05 58.85-0.25L58.85-0.25Q58.15-0.65 57.42-1.5 56.7-2.35 56.22-4 55.75-5.65 55.75-8.6L55.75-8.6Q55.75-10.55 55.12-11.8 54.5-13.05 53.52-13.73 52.55-14.4 51.37-14.68 50.2-14.95 49.15-14.95L49.15-14.95 37.5-14.95 38.05-15.65 38.05-1.5Q38.05-0.9 37.65-0.45 37.25 0 36.6 0ZM38.05-17L37.5-17.7 50.05-17.7Q51.75-17.85 53.25-18.82 54.75-19.8 55.67-21.5 56.6-23.2 56.6-25.45L56.6-25.45Q56.6-28.3 54.67-30.18 52.75-32.05 49.65-32.05L49.65-32.05 37.7-32.05 38.05-32.75 38.05-17ZM79.2-31.35L80.1-31.15 67.95-0.95Q67.75-0.45 67.4-0.2 67.05 0.05 66.6 0.05L66.6 0.05Q65.9 0.05 65.55-0.33 65.2-0.7 65.15-1.25L65.15-1.25Q65.1-1.5 65.2-1.85L65.2-1.85 78.4-34.15Q78.65-34.7 79.02-34.93 79.4-35.15 79.9-35.15L79.9-35.15Q80.4-35.15 80.77-34.88 81.15-34.6 81.35-34.15L81.35-34.15 94.5-2Q94.6-1.7 94.6-1.4L94.6-1.4Q94.6-0.7 94.15-0.33 93.7 0.05 93.1 0.05L93.1 0.05Q92.6 0.05 92.22-0.23 91.85-0.5 91.65-0.95L91.65-0.95 79.2-31.35ZM88.2-10.1L70.85-10.1 72.1-13.05 87.6-13.05 88.2-10.1ZM103.89-33.45L103.89-1.55Q103.84-0.9 103.37-0.45 102.89 0 102.29 0L102.29 0Q101.59 0 101.17-0.45 100.74-0.9 100.74-1.55L100.74-1.55 100.74-33.45Q100.74-34.1 101.19-34.55 101.64-35 102.34-35L102.34-35Q102.94-35 103.42-34.55 103.89-34.1 103.89-33.45L103.89-33.45ZM115.44-2.95L132.59-2.95Q133.19-2.95 133.64-2.53 134.09-2.1 134.09-1.5L134.09-1.5Q134.09-0.85 133.64-0.43 133.19 0 132.59 0L132.59 0 114.74 0Q114.09 0 113.67-0.45 113.24-0.9 113.24-1.5L113.24-1.5 113.24-33.5Q113.24-34.1 113.69-34.55 114.14-35 114.84-35L114.84-35Q115.44-35 115.92-34.55 116.39-34.1 116.39-33.5L116.39-33.5 116.39-2.1 115.44-2.95ZM141.34-35L141.34-35 159.69-35Q160.29-35 160.74-34.58 161.19-34.15 161.19-33.5L161.19-33.5Q161.19-32.85 160.74-32.45 160.29-32.05 159.69-32.05L159.69-32.05 142.49-32.05 142.99-32.9 142.99-18.85 142.44-19.5 157.44-19.5Q158.04-19.5 158.49-19.05 158.94-18.6 158.94-18L158.94-18Q158.94-17.35 158.49-16.95 158.04-16.55 157.44-16.55L157.44-16.55 142.54-16.55 142.99-17.05 142.99-2.65 142.74-2.95 159.69-2.95Q160.29-2.95 160.74-2.5 161.19-2.05 161.19-1.45L161.19-1.45Q161.19-0.8 160.74-0.4 160.29 0 159.69 0L159.69 0 141.34 0Q140.74 0 140.29-0.45 139.84-0.9 139.84-1.5L139.84-1.5 139.84-33.5Q139.84-34.1 140.29-34.55 140.74-35 141.34-35ZM169.94 0L169.94 0Q169.19 0 168.71-0.45 168.24-0.9 168.24-1.5L168.24-1.5 168.24-33.5Q168.24-34.1 168.69-34.55 169.14-35 169.74-35L169.74-35 183.24-35Q186.09-35 188.34-33.77 190.59-32.55 191.86-30.4 193.14-28.25 193.14-25.55L193.14-25.55Q193.14-23.35 192.34-21.5 191.54-19.65 190.09-18.38 188.64-17.1 186.84-16.5L186.84-16.5 185.09-17.05Q186.94-16.9 188.54-15.88 190.14-14.85 191.11-13.08 192.09-11.3 192.14-8.8L192.14-8.8Q192.19-6.65 192.36-5.45 192.54-4.25 192.89-3.65 193.24-3.05 193.79-2.7L193.79-2.7Q194.29-2.4 194.46-1.85 194.64-1.3 194.34-0.8L194.34-0.8Q194.14-0.4 193.76-0.23 193.39-0.05 192.99-0.05 192.59-0.05 192.19-0.25L192.19-0.25Q191.49-0.65 190.76-1.5 190.04-2.35 189.56-4 189.09-5.65 189.09-8.6L189.09-8.6Q189.09-10.55 188.46-11.8 187.84-13.05 186.86-13.73 185.89-14.4 184.71-14.68 183.54-14.95 182.49-14.95L182.49-14.95 170.84-14.95 171.39-15.65 171.39-1.5Q171.39-0.9 170.99-0.45 170.59 0 169.94 0ZM171.39-17L170.84-17.7 183.39-17.7Q185.09-17.85 186.59-18.82 188.09-19.8 189.01-21.5 189.94-23.2 189.94-25.45L189.94-25.45Q189.94-28.3 188.01-30.18 186.09-32.05 182.99-32.05L182.99-32.05 171.04-32.05 171.39-32.75 171.39-17ZM216.88-35L230.13-35Q234.33-35 236.71-32.73 239.08-30.45 239.08-26.4L239.08-26.4Q239.08-24.3 238.18-22.4 237.28-20.5 235.53-19.33 233.78-18.15 231.18-18L231.18-18 230.98-19Q232.83-19 234.61-18.48 236.38-17.95 237.78-16.8 239.18-15.65 240.03-13.93 240.88-12.2 240.88-9.75L240.88-9.75Q240.88-7.15 240.01-5.28 239.13-3.4 237.66-2.25 236.18-1.1 234.28-0.55 232.38 0 230.33 0L230.33 0 216.88 0Q216.28 0 215.83-0.45 215.38-0.9 215.38-1.5L215.38-1.5 215.38-33.5Q215.38-34.1 215.83-34.55 216.28-35 216.88-35L216.88-35ZM229.73-32.05L229.73-32.05 217.98-32.05 218.58-32.95 218.58-18.8 218.03-19.55 229.73-19.55Q232.33-19.6 234.11-21.25 235.88-22.9 235.88-26.15L235.88-26.15Q235.88-28.9 234.28-30.48 232.68-32.05 229.73-32.05ZM230.08-16.55L230.08-16.55 218.33-16.55 218.58-16.85 218.58-2.5 218.28-2.95 230.18-2.95Q233.38-2.95 235.53-4.58 237.68-6.2 237.68-9.75L237.68-9.75Q237.68-12.25 236.63-13.75 235.58-15.25 233.83-15.9 232.08-16.55 230.08-16.55ZM249.63 0L249.63 0Q248.88 0 248.4-0.45 247.93-0.9 247.93-1.5L247.93-1.5 247.93-33.5Q247.93-34.1 248.38-34.55 248.83-35 249.43-35L249.43-35 262.93-35Q265.78-35 268.03-33.77 270.28-32.55 271.55-30.4 272.83-28.25 272.83-25.55L272.83-25.55Q272.83-23.35 272.03-21.5 271.23-19.65 269.78-18.38 268.33-17.1 266.53-16.5L266.53-16.5 264.78-17.05Q266.63-16.9 268.23-15.88 269.83-14.85 270.8-13.08 271.78-11.3 271.83-8.8L271.83-8.8Q271.88-6.65 272.05-5.45 272.23-4.25 272.58-3.65 272.93-3.05 273.48-2.7L273.48-2.7Q273.98-2.4 274.15-1.85 274.33-1.3 274.03-0.8L274.03-0.8Q273.83-0.4 273.45-0.23 273.08-0.05 272.68-0.05 272.28-0.05 271.88-0.25L271.88-0.25Q271.18-0.65 270.45-1.5 269.73-2.35 269.25-4 268.78-5.65 268.78-8.6L268.78-8.6Q268.78-10.55 268.15-11.8 267.53-13.05 266.55-13.73 265.58-14.4 264.4-14.68 263.23-14.95 262.18-14.95L262.18-14.95 250.53-14.95 251.08-15.65 251.08-1.5Q251.08-0.9 250.68-0.45 250.28 0 249.63 0ZM251.08-17L250.53-17.7 263.08-17.7Q264.78-17.85 266.28-18.82 267.78-19.8 268.7-21.5 269.63-23.2 269.63-25.45L269.63-25.45Q269.63-28.3 267.7-30.18 265.78-32.05 262.68-32.05L262.68-32.05 250.73-32.05 251.08-32.75 251.08-17ZM292.23-31.35L293.13-31.15 280.98-0.95Q280.78-0.45 280.43-0.2 280.08 0.05 279.63 0.05L279.63 0.05Q278.93 0.05 278.58-0.33 278.23-0.7 278.18-1.25L278.18-1.25Q278.13-1.5 278.23-1.85L278.23-1.85 291.43-34.15Q291.68-34.7 292.05-34.93 292.43-35.15 292.93-35.15L292.93-35.15Q293.43-35.15 293.8-34.88 294.18-34.6 294.38-34.15L294.38-34.15 307.53-2Q307.63-1.7 307.63-1.4L307.63-1.4Q307.63-0.7 307.18-0.33 306.73 0.05 306.13 0.05L306.13 0.05Q305.63 0.05 305.25-0.23 304.88-0.5 304.68-0.95L304.68-0.95 292.23-31.35ZM301.23-10.1L283.88-10.1 285.13-13.05 300.63-13.05 301.23-10.1ZM323.42 0.5L323.42 0.5Q319.62 0.55 316.82-0.7 314.02-1.95 311.47-4.45L311.47-4.45Q311.22-4.65 311.05-4.95 310.87-5.25 310.87-5.65L310.87-5.65Q310.87-6.25 311.35-6.75 311.82-7.25 312.42-7.25L312.42-7.25Q313.02-7.25 313.52-6.75L313.52-6.75Q315.47-4.65 317.95-3.55 320.42-2.45 323.27-2.45L323.27-2.45Q325.67-2.45 327.55-3.2 329.42-3.95 330.52-5.35 331.62-6.75 331.62-8.6L331.62-8.6Q331.62-10.9 330.37-12.33 329.12-13.75 327.07-14.68 325.02-15.6 322.52-16.35L322.52-16.35Q320.47-16.95 318.62-17.73 316.77-18.5 315.32-19.63 313.87-20.75 313.07-22.4 312.27-24.05 312.27-26.4L312.27-26.4Q312.27-29.05 313.67-31.1 315.07-33.15 317.65-34.33 320.22-35.5 323.62-35.5L323.62-35.5Q326.57-35.5 329.3-34.5 332.02-33.5 333.62-31.55L333.62-31.55Q334.37-30.75 334.37-30.1L334.37-30.1Q334.37-29.6 333.87-29.1 333.37-28.6 332.77-28.6L332.77-28.6Q332.27-28.6 331.92-28.95L331.92-28.95Q331.07-30 329.77-30.83 328.47-31.65 326.9-32.1 325.32-32.55 323.62-32.55L323.62-32.55Q321.27-32.55 319.4-31.83 317.52-31.1 316.45-29.75 315.37-28.4 315.37-26.5L315.37-26.5Q315.37-24.4 316.57-23.05 317.77-21.7 319.72-20.83 321.67-19.95 323.87-19.2L323.87-19.2Q326.02-18.6 328-17.82 329.97-17.05 331.5-15.9 333.02-14.75 333.9-13 334.77-11.25 334.77-8.6L334.77-8.6Q334.77-6.05 333.32-4 331.87-1.95 329.35-0.75 326.82 0.45 323.42 0.5ZM345.02-33.45L345.02-1.55Q344.97-0.9 344.5-0.45 344.02 0 343.42 0L343.42 0Q342.72 0 342.3-0.45 341.87-0.9 341.87-1.55L341.87-1.55 341.87-33.45Q341.87-34.1 342.32-34.55 342.77-35 343.47-35L343.47-35Q344.07-35 344.55-34.55 345.02-34.1 345.02-33.45L345.02-33.45ZM356.57-2.95L373.72-2.95Q374.32-2.95 374.77-2.53 375.22-2.1 375.22-1.5L375.22-1.5Q375.22-0.85 374.77-0.43 374.32 0 373.72 0L373.72 0 355.87 0Q355.22 0 354.79-0.45 354.37-0.9 354.37-1.5L354.37-1.5 354.37-33.5Q354.37-34.1 354.82-34.55 355.27-35 355.97-35L355.97-35Q356.57-35 357.04-34.55 357.52-34.1 357.52-33.5L357.52-33.5 357.52-2.1 356.57-2.95Z" opacity="1" transform="matrix(1,0,0,1,0,0)" fill="#000000" class="undefined-text-0" data-fill-palette-color="quaternary" id="text-0"></path></svg></g></svg></g><g transform="matrix(1,0,0,1,101.00501809157757,85.96633007015828)"><svg viewBox="0 0 193.50996381684485 13.530851116648371" height="13.530851116648371" width="193.50996381684485"><g transform="matrix(1,0,0,1,0,0)"><svg width="193.50996381684485" viewBox="0.6000000238418579 -35.5 514.780029296875 36" height="13.530851116648371" data-palette-color="#2ecc40"><path d="M6.35 0L6.35-30 0.6-30 0.6-35 17.6-35 17.6-30 11.85-30 11.85 0 6.35 0ZM20.25 0L20.25-35 28.4-35Q32.65-35 34.6-33.02 36.55-31.05 36.55-26.95L36.55-26.95 36.55-24.8Q36.55-19.35 32.95-17.9L32.95-17.9 32.95-17.8Q34.95-17.2 35.77-15.35 36.6-13.5 36.6-10.4L36.6-10.4 36.6-4.25Q36.6-2.75 36.7-1.83 36.8-0.9 37.2 0L37.2 0 31.6 0Q31.3-0.85 31.2-1.6 31.1-2.35 31.1-4.3L31.1-4.3 31.1-10.7Q31.1-13.1 30.32-14.05 29.55-15 27.65-15L27.65-15 25.75-15 25.75 0 20.25 0ZM25.75-20L27.75-20Q29.4-20 30.22-20.85 31.05-21.7 31.05-23.7L31.05-23.7 31.05-26.4Q31.05-28.3 30.37-29.15 29.7-30 28.25-30L28.25-30 25.75-30 25.75-20ZM38.95 0L44.64-35 52.09-35 57.8 0 52.3 0 51.3-6.95 51.3-6.85 45.05-6.85 44.05 0 38.95 0ZM45.7-11.6L50.64-11.6 48.2-28.9 48.09-28.9 45.7-11.6ZM60.44 0L60.44-35 65.94-35 65.94 0 60.44 0ZM70.04 0L70.04-35 75.54-35 75.54-5 84.59-5 84.59 0 70.04 0ZM87.24 0L87.24-35 102.24-35 102.24-30 92.74-30 92.74-20.75 100.29-20.75 100.29-15.75 92.74-15.75 92.74-5 102.24-5 102.24 0 87.24 0ZM105.39 0L105.39-35 113.54-35Q117.79-35 119.74-33.02 121.69-31.05 121.69-26.95L121.69-26.95 121.69-24.8Q121.69-19.35 118.09-17.9L118.09-17.9 118.09-17.8Q120.09-17.2 120.91-15.35 121.74-13.5 121.74-10.4L121.74-10.4 121.74-4.25Q121.74-2.75 121.84-1.83 121.94-0.9 122.34 0L122.34 0 116.74 0Q116.44-0.85 116.34-1.6 116.24-2.35 116.24-4.3L116.24-4.3 116.24-10.7Q116.24-13.1 115.46-14.05 114.69-15 112.79-15L112.79-15 110.89-15 110.89 0 105.39 0ZM110.89-20L112.89-20Q114.54-20 115.36-20.85 116.19-21.7 116.19-23.7L116.19-23.7 116.19-26.4Q116.19-28.3 115.51-29.15 114.84-30 113.39-30L113.39-30 110.89-30 110.89-20ZM132.68 0.5Q128.68 0.5 126.63-1.78 124.58-4.05 124.58-8.3L124.58-8.3 124.58-10.3 129.78-10.3 129.78-7.9Q129.78-4.5 132.63-4.5L132.63-4.5Q134.03-4.5 134.76-5.33 135.48-6.15 135.48-8L135.48-8Q135.48-10.2 134.48-11.88 133.48-13.55 130.78-15.9L130.78-15.9Q127.38-18.9 126.03-21.33 124.68-23.75 124.68-26.8L124.68-26.8Q124.68-30.95 126.78-33.23 128.88-35.5 132.88-35.5L132.88-35.5Q136.83-35.5 138.86-33.23 140.88-30.95 140.88-26.7L140.88-26.7 140.88-25.25 135.68-25.25 135.68-27.05Q135.68-28.85 134.98-29.68 134.28-30.5 132.93-30.5L132.93-30.5Q130.18-30.5 130.18-27.15L130.18-27.15Q130.18-25.25 131.21-23.6 132.23-21.95 134.93-19.6L134.93-19.6Q138.38-16.6 139.68-14.15 140.98-11.7 140.98-8.4L140.98-8.4Q140.98-4.1 138.86-1.8 136.73 0.5 132.68 0.5L132.68 0.5ZM152.13 0L152.13-35 160.53-35Q164.63-35 166.68-32.8 168.73-30.6 168.73-26.35L168.73-26.35 168.73-8.65Q168.73-4.4 166.68-2.2 164.63 0 160.53 0L160.53 0 152.13 0ZM157.63-5L160.43-5Q161.78-5 162.5-5.8 163.23-6.6 163.23-8.4L163.23-8.4 163.23-26.6Q163.23-28.4 162.5-29.2 161.78-30 160.43-30L160.43-30 157.63-30 157.63-5ZM172.43 0L172.43-35 187.43-35 187.43-30 177.93-30 177.93-20.75 185.48-20.75 185.48-15.75 177.93-15.75 177.93-5 187.43-5 187.43 0 172.43 0ZM198.57 0L198.57-35 206.67-35Q210.77-35 212.82-32.8 214.87-30.6 214.87-26.35L214.87-26.35 214.87-22.9Q214.87-18.65 212.82-16.45 210.77-14.25 206.67-14.25L206.67-14.25 204.07-14.25 204.07 0 198.57 0ZM204.07-19.25L206.67-19.25Q208.02-19.25 208.7-20 209.37-20.75 209.37-22.55L209.37-22.55 209.37-26.7Q209.37-28.5 208.7-29.25 208.02-30 206.67-30L206.67-30 204.07-30 204.07-19.25ZM217.87 0L217.87-35 232.87-35 232.87-30 223.37-30 223.37-20.75 230.92-20.75 230.92-15.75 223.37-15.75 223.37-5 232.87-5 232.87 0 217.87 0ZM236.02 0L236.02-35 241.52-35 241.52-5 250.57-5 250.57 0 236.02 0ZM253.21 0L253.21-35 258.71-35 258.71 0 253.21 0ZM270.56 0.5Q266.61 0.5 264.54-1.75 262.46-4 262.46-8.1L262.46-8.1 262.46-26.9Q262.46-31 264.54-33.25 266.61-35.5 270.56-35.5L270.56-35.5Q274.51-35.5 276.59-33.25 278.66-31 278.66-26.9L278.66-26.9 278.66-23.2 273.46-23.2 273.46-27.25Q273.46-30.5 270.71-30.5L270.71-30.5Q267.96-30.5 267.96-27.25L267.96-27.25 267.96-7.7Q267.96-4.5 270.71-4.5L270.71-4.5Q273.46-4.5 273.46-7.7L273.46-7.7 273.46-13.05 278.66-13.05 278.66-8.1Q278.66-4 276.59-1.75 274.51 0.5 270.56 0.5L270.56 0.5ZM289.96 0.5Q285.96 0.5 283.86-1.78 281.76-4.05 281.76-8.3L281.76-8.3 281.76-35 287.26-35 287.26-7.9Q287.26-6.1 287.98-5.3 288.71-4.5 290.06-4.5L290.06-4.5Q291.41-4.5 292.13-5.3 292.86-6.1 292.86-7.9L292.86-7.9 292.86-35 298.16-35 298.16-8.3Q298.16-4.05 296.06-1.78 293.96 0.5 289.96 0.5L289.96 0.5ZM302.06 0L302.06-35 307.56-35 307.56-5 316.61-5 316.61 0 302.06 0ZM318 0L323.7-35 331.15-35 336.85 0 331.35 0 330.35-6.95 330.35-6.85 324.1-6.85 323.1 0 318 0ZM324.75-11.6L329.7-11.6 327.25-28.9 327.15-28.9 324.75-11.6ZM346.5 0.5Q342.5 0.5 340.45-1.78 338.4-4.05 338.4-8.3L338.4-8.3 338.4-10.3 343.6-10.3 343.6-7.9Q343.6-4.5 346.45-4.5L346.45-4.5Q347.85-4.5 348.58-5.33 349.3-6.15 349.3-8L349.3-8Q349.3-10.2 348.3-11.88 347.3-13.55 344.6-15.9L344.6-15.9Q341.2-18.9 339.85-21.33 338.5-23.75 338.5-26.8L338.5-26.8Q338.5-30.95 340.6-33.23 342.7-35.5 346.7-35.5L346.7-35.5Q350.65-35.5 352.68-33.23 354.7-30.95 354.7-26.7L354.7-26.7 354.7-25.25 349.5-25.25 349.5-27.05Q349.5-28.85 348.8-29.68 348.1-30.5 346.75-30.5L346.75-30.5Q344-30.5 344-27.15L344-27.15Q344-25.25 345.03-23.6 346.05-21.95 348.75-19.6L348.75-19.6Q352.2-16.6 353.5-14.15 354.8-11.7 354.8-8.4L354.8-8.4Q354.8-4.1 352.68-1.8 350.55 0.5 346.5 0.5L346.5 0.5ZM365.95 0L365.95-35 374.35-35Q378.45-35 380.5-32.8 382.55-30.6 382.55-26.35L382.55-26.35 382.55-8.65Q382.55-4.4 380.5-2.2 378.45 0 374.35 0L374.35 0 365.95 0ZM371.45-5L374.25-5Q375.6-5 376.32-5.8 377.05-6.6 377.05-8.4L377.05-8.4 377.05-26.6Q377.05-28.4 376.32-29.2 375.6-30 374.25-30L374.25-30 371.45-30 371.45-5ZM386.24 0L386.24-35 401.24-35 401.24-30 391.74-30 391.74-20.75 399.29-20.75 399.29-15.75 391.74-15.75 391.74-5 401.24-5 401.24 0 386.24 0ZM412.39 0L412.39-35 420.69-35Q424.94-35 426.89-33.02 428.84-31.05 428.84-26.95L428.84-26.95 428.84-25.55Q428.84-22.85 427.96-21.15 427.09-19.45 425.29-18.7L425.29-18.7 425.29-18.6Q429.39-17.2 429.39-11.3L429.39-11.3 429.39-8.3Q429.39-4.25 427.26-2.13 425.14 0 421.04 0L421.04 0 412.39 0ZM417.89-20.75L420.04-20.75Q421.69-20.75 422.51-21.6 423.34-22.45 423.34-24.45L423.34-24.45 423.34-26.4Q423.34-28.3 422.66-29.15 421.99-30 420.54-30L420.54-30 417.89-30 417.89-20.75ZM417.89-5L421.04-5Q422.49-5 423.19-5.78 423.89-6.55 423.89-8.45L423.89-8.45 423.89-11.5Q423.89-13.9 423.06-14.83 422.24-15.75 420.34-15.75L420.34-15.75 417.89-15.75 417.89-5ZM432.59 0L432.59-35 440.74-35Q444.99-35 446.94-33.02 448.89-31.05 448.89-26.95L448.89-26.95 448.89-24.8Q448.89-19.35 445.29-17.9L445.29-17.9 445.29-17.8Q447.29-17.2 448.11-15.35 448.94-13.5 448.94-10.4L448.94-10.4 448.94-4.25Q448.94-2.75 449.04-1.83 449.14-0.9 449.54 0L449.54 0 443.94 0Q443.64-0.85 443.54-1.6 443.44-2.35 443.44-4.3L443.44-4.3 443.44-10.7Q443.44-13.1 442.66-14.05 441.89-15 439.99-15L439.99-15 438.09-15 438.09 0 432.59 0ZM438.09-20L440.09-20Q441.74-20 442.56-20.85 443.39-21.7 443.39-23.7L443.39-23.7 443.39-26.4Q443.39-28.3 442.71-29.15 442.04-30 440.59-30L440.59-30 438.09-30 438.09-20ZM451.28 0L456.98-35 464.43-35 470.13 0 464.63 0 463.63-6.95 463.63-6.85 457.38-6.85 456.38 0 451.28 0ZM458.03-11.6L462.98-11.6 460.53-28.9 460.43-28.9 458.03-11.6ZM479.78 0.5Q475.78 0.5 473.73-1.78 471.68-4.05 471.68-8.3L471.68-8.3 471.68-10.3 476.88-10.3 476.88-7.9Q476.88-4.5 479.73-4.5L479.73-4.5Q481.13-4.5 481.86-5.33 482.58-6.15 482.58-8L482.58-8Q482.58-10.2 481.58-11.88 480.58-13.55 477.88-15.9L477.88-15.9Q474.48-18.9 473.13-21.33 471.78-23.75 471.78-26.8L471.78-26.8Q471.78-30.95 473.88-33.23 475.98-35.5 479.98-35.5L479.98-35.5Q483.93-35.5 485.96-33.23 487.98-30.95 487.98-26.7L487.98-26.7 487.98-25.25 482.78-25.25 482.78-27.05Q482.78-28.85 482.08-29.68 481.38-30.5 480.03-30.5L480.03-30.5Q477.28-30.5 477.28-27.15L477.28-27.15Q477.28-25.25 478.31-23.6 479.33-21.95 482.03-19.6L482.03-19.6Q485.48-16.6 486.78-14.15 488.08-11.7 488.08-8.4L488.08-8.4Q488.08-4.1 485.96-1.8 483.83 0.5 479.78 0.5L479.78 0.5ZM491.23 0L491.23-35 496.73-35 496.73 0 491.23 0ZM500.83 0L500.83-35 506.33-35 506.33-5 515.38-5 515.38 0 500.83 0Z" opacity="1" transform="matrix(1,0,0,1,0,0)" fill="#ffffff" class="undefined-text-1" data-fill-palette-color="secondary" id="text-1"></path></svg></g></svg></g></svg></g></svg></g><g transform="matrix(1,0,0,1,168.42380226783666,0)"><svg viewBox="0 0 58.67239546432665 91.6700696001112" height="91.6700696001112" width="58.67239546432665"><g><svg xmlns="http://www.w3.org/2000/svg" xmlns:xlink="http://www.w3.org/1999/xlink" version="1.1" x="0" y="0" viewBox="21.621002197265625 5.660991668701172 56.75799560546875 88.67900085449219" enable-background="new 0 0 100 100" xml:space="preserve" height="91.6700696001112" width="58.67239546432665" class="icon-icon-0" data-fill-palette-color="accent" id="icon-0"><g fill="#2ecc40" data-fill-palette-color="accent"><g fill="#2ecc40" data-fill-palette-color="accent"><g fill="#2ecc40" data-fill-palette-color="accent"><path fill-rule="evenodd" clip-rule="evenodd" d="M50.013 94.34l-3.212-5.65c-3.533-6.276-15.461-27.395-19.184-34.215-2.695-5.107-5.996-13.553-5.996-20.447 0-15.62 12.771-28.367 28.365-28.367 15.628 0 28.393 12.747 28.393 28.367 0 6.604-3.063 15.496-5.93 20.525-4.807 8.365-19.224 34.07-19.345 34.209L50.013 94.34zM50.013 12.766L50.013 12.766c-11.709 0-21.299 9.565-21.299 21.262 0 5.185 2.626 12.311 5.184 17.038 2.943 5.414 11.277 20.3 16.089 28.757 4.634-8.309 12.832-22.816 16.239-28.829 2.34-4.144 4.967-11.845 4.967-16.966 0-5.715-2.219-10.957-6.209-15.022-4.026-4.007-9.355-6.239-14.997-6.239H50.013z" fill="#ffffff" data-fill-palette-color="accent"></path></g></g><path d="M60.642 27.083h-3.508l3.529-3.539-3.488-3.57h-4.946l3.544 3.54-3.631 3.569h-4.197l3.607-3.539-3.565-3.57h-5.025l3.541 3.54-3.631 3.569H39.31l3.609-3.539-3.567-3.57h-3.569V48.41h28.436V19.974h-3.486l3.486 3.555L60.642 27.083zM60.663 44.817H39.336v-3.555h21.327V44.817zM60.663 37.746H39.336v-3.554h21.327V37.746z" fill="#ffffff" data-fill-palette-color="accent"></path></g></svg></g></svg></g><g></g></svg></g><defs></defs></svg><rect width="395.52" height="197.62823219511745" fill="none" stroke="none" visibility="hidden"></rect></g></svg></g></svg>